<?xml version="1.0" encoding="utf-8"?>
<!-- Generator: Adobe Illustrator 25.1.0, SVG Export Plug-In . SVG Version: 6.00 Build 0)  -->
<svg version="1.1" id="Layer_1" xmlns="http://www.w3.org/2000/svg" xmlns:xlink="http://www.w3.org/1999/xlink" x="0px" y="0px"
	 viewBox="0 0 50 50" style="enable-background:new 0 0 50 50;" xml:space="preserve">
<style type="text/css">
	.st0{clip-path:url(#SVGID_2_);fill:#FFC800;}
	.st1{clip-path:url(#SVGID_2_);fill:#FFFFFF;}
	.st2{clip-path:url(#SVGID_2_);fill:#1D1D1B;}
</style>
<g>
	<defs>
		<rect id="SVGID_1_" y="0" width="50" height="50"/>
	</defs>
	<clipPath id="SVGID_2_">
		<use xlink:href="#SVGID_1_"  style="overflow:visible;"/>
	</clipPath>
	<path class="st0" d="M25,50c13.8,0,25-11.2,25-25S38.8,0,25,0S0,11.2,0,25S11.2,50,25,50"/>
	<path class="st1" d="M40,33c0,1.8,1.4,3.2,3.2,3.2c1.8,0,3.2-1.4,3.2-3.2c0-1.8-1.4-3.2-3.2-3.2C41.4,29.9,40,31.3,40,33"/>
	<path class="st2" d="M35,30.4c0,1.7-1.8,2.4-3.6,2.4c-3.1,0-4.9-3.1-4.9-3.1l-2.6,2.2c0,0,2.4,4.2,7.5,4.2c3.9,0,7.2-2,7.2-5.7
		c0-3.7-2.6-5.1-5.8-6.3c-2.8-1.1-4.4-1.6-4.4-3.4c0-1.4,1.4-2.5,3.1-2.5c2.6,0,4.3,2.3,4.3,2.3l2.4-2.4c0,0-2.4-3.3-6.7-3.3
		c-4.1,0-6.7,2.9-6.7,5.8c0,3.8,3.4,5.5,6.4,6.5C33.6,28,35,28.6,35,30.4 M14.7,24.6h-2.8v-6.1h2.8c2.3,0,3.7,1,3.7,3.1
		C18.4,23.6,17,24.6,14.7,24.6 M8.4,35.8h3.5V28h1.6l4.9,7.8h4.1l-5.1-8c2.9-0.7,4.6-3.1,4.6-6.2c0-3.8-2.7-6.4-6.8-6.4H8.4V35.8z"
		/>
</g>
</svg>
