<?xml version="1.0" encoding="utf-8"?>
<!-- Generator: Adobe Illustrator 25.1.0, SVG Export Plug-In . SVG Version: 6.00 Build 0)  -->
<svg version="1.1" id="Layer_1" xmlns="http://www.w3.org/2000/svg" xmlns:xlink="http://www.w3.org/1999/xlink" x="0px" y="0px"
	 viewBox="0 0 50 50" style="enable-background:new 0 0 50 50;" xml:space="preserve">
<style type="text/css">
	.st0{clip-path:url(#SVGID_2_);}
</style>
<g>
	<g>
		<defs>
			<rect id="SVGID_1_" width="50" height="50"/>
		</defs>
		<clipPath id="SVGID_2_">
			<use xlink:href="#SVGID_1_"  style="overflow:visible;"/>
		</clipPath>
		<g class="st0">
			<path d="M18.4,21.6c0-2-1.4-3.1-3.7-3.1h-2.8v6.1h2.8C17,24.6,18.4,23.6,18.4,21.6z"/>
			<path d="M25,0C11.2,0,0,11.2,0,25s11.2,25,25,25s25-11.2,25-25S38.8,0,25,0z M18.4,35.8L13.5,28h-1.6v7.8H8.4V15.2h6.8
				c4.1,0,6.8,2.6,6.8,6.4c0,3.1-1.6,5.4-4.6,6.2l5.1,8H18.4z M31.4,36.1c-5.1,0-7.5-4.2-7.5-4.2l2.6-2.2c0,0,1.8,3.1,4.9,3.1
				c1.8,0,3.6-0.7,3.6-2.4c0-1.7-1.3-2.4-3.8-3.2c-3-1.1-6.4-2.7-6.4-6.5c0-2.9,2.6-5.8,6.7-5.8c4.3,0,6.7,3.3,6.7,3.3l-2.4,2.4
				c0,0-1.7-2.3-4.3-2.3c-1.8,0-3.1,1.1-3.1,2.5c0,1.8,1.6,2.4,4.4,3.4c3.1,1.2,5.8,2.6,5.8,6.3C38.5,34.1,35.3,36.1,31.4,36.1z
				 M43.2,36.2c-1.8,0-3.2-1.4-3.2-3.2s1.4-3.2,3.2-3.2s3.2,1.4,3.2,3.2C46.4,34.8,45,36.2,43.2,36.2z"/>
		</g>
	</g>
</g>
</svg>
