<?xml version="1.0" encoding="utf-8"?>
<!-- Generator: Adobe Illustrator 25.1.0, SVG Export Plug-In . SVG Version: 6.00 Build 0)  -->
<svg version="1.1" id="Layer_1" xmlns="http://www.w3.org/2000/svg" xmlns:xlink="http://www.w3.org/1999/xlink" x="0px" y="0px"
	 viewBox="0 0 100 100" style="enable-background:new 0 0 100 100;" xml:space="preserve">
<style type="text/css">
	.st0{fill:#FFC800;}
	.st1{clip-path:url(#SVGID_2_);fill:#1D1D1B;}
	.st2{clip-path:url(#SVGID_2_);fill:none;stroke:#1D1D1B;stroke-width:0.5;}
</style>
<circle class="st0" cx="50" cy="50" r="50"/>
<g>
	<defs>
		<rect id="SVGID_1_" x="18.1" y="26" width="63.7" height="48"/>
	</defs>
	<clipPath id="SVGID_2_">
		<use xlink:href="#SVGID_1_"  style="overflow:visible;"/>
	</clipPath>
	<path class="st1" d="M18.5,73.6h62.9V26.4H18.5V73.6z M78.8,28L51.1,55.7c-0.3,0.3-0.7,0.4-1.1,0.4c-0.4,0-0.8-0.1-1.1-0.4L21.2,28
		H78.8z M79.9,29.1v41.8L59,50L79.9,29.1z M78.8,72H21.2l20.9-20.9l5.6,5.6c0.6,0.6,1.4,1,2.3,1c0.9,0,1.6-0.3,2.2-1l5.6-5.6
		L78.8,72z M20.1,70.9V29.1L41,50L20.1,70.9z"/>
	<path class="st2" d="M18.5,73.6h62.9V26.4H18.5V73.6z M78.8,28L51.1,55.7c-0.3,0.3-0.7,0.4-1.1,0.4c-0.4,0-0.8-0.1-1.1-0.4L21.2,28
		H78.8z M79.9,29.1v41.8L59,50L79.9,29.1z M78.8,72H21.2l20.9-20.9l5.6,5.6c0.6,0.6,1.4,1,2.3,1c0.9,0,1.6-0.3,2.2-1l5.6-5.6
		L78.8,72z M20.1,70.9V29.1L41,50L20.1,70.9z"/>
</g>
</svg>
