<?xml version="1.0" encoding="utf-8"?>
<!-- Generator: Adobe Illustrator 25.1.0, SVG Export Plug-In . SVG Version: 6.00 Build 0)  -->
<svg version="1.1" id="Layer_1" xmlns="http://www.w3.org/2000/svg" xmlns:xlink="http://www.w3.org/1999/xlink" x="0px" y="0px"
	 viewBox="0 0 100 100" style="enable-background:new 0 0 100 100;" xml:space="preserve">
<style type="text/css">
	.st0{fill:#FFC800;}
	.st1{clip-path:url(#SVGID_2_);fill:none;stroke:#1D1D1B;stroke-width:2.357;stroke-miterlimit:10;}
	.st2{clip-path:url(#SVGID_4_);}
	.st3{fill:#1D1D1B;}
	.st4{clip-path:url(#SVGID_6_);fill:none;stroke:#1D1D1B;stroke-width:2.121;stroke-linejoin:round;stroke-miterlimit:10;}
	.st5{clip-path:url(#SVGID_8_);fill:none;stroke:#1D1D1B;stroke-width:0.918;}
</style>
<circle class="st0" cx="50" cy="50" r="50"/>
<g>
	<g>
		<g>
			<g>
				<g>
					<g>
						<g>
							<defs>
								<rect id="SVGID_1_" x="9.3" y="2" width="82" height="84.8"/>
							</defs>
							<clipPath id="SVGID_2_">
								<use xlink:href="#SVGID_1_"  style="overflow:visible;"/>
							</clipPath>
							<rect x="26.6" y="84.7" class="st1" width="48.1" height="0.5"/>
						</g>
					</g>
				</g>
			</g>
		</g>
		<g>
			<g>
				<g>
					<g>
						<g>
							<defs>
								<rect id="SVGID_3_" x="9.3" y="2" width="82" height="84.8"/>
							</defs>
							<clipPath id="SVGID_4_">
								<use xlink:href="#SVGID_3_"  style="overflow:visible;"/>
							</clipPath>
							<g class="st2">
								<path class="st3" d="M50.6,33.5c5.5,0,11.1-5.9,11.1-13.2c0-7.2-4-13.2-11.1-13.2S39.5,13,39.5,20.3
									C39.7,27.6,45.2,33.5,50.6,33.5z"/>
								<path class="st3" d="M88.6,69l-16-22.5c0,0-5.1-9.7-22.1-9.7s-23.7,9.7-23.7,9.7L12.1,69c-2.5,6.4-1.6,10.9,3.9,12.2
									l6.3,0.1l5.7-8.1l-2.2-18.6H41l18.1-0.1h16l-2,18.8l5.5,8l6.3-0.1C90.2,79.9,91.2,75.4,88.6,69z"/>
							</g>
						</g>
					</g>
				</g>
			</g>
		</g>
		<g>
			<g>
				<g>
					<g>
						<g>
							<defs>
								<rect id="SVGID_5_" x="9.3" y="2" width="82" height="84.8"/>
							</defs>
							<clipPath id="SVGID_6_">
								<use xlink:href="#SVGID_5_"  style="overflow:visible;"/>
							</clipPath>
							<polygon class="st4" points="28.9,81.8 25.7,54.6 75,54.6 72.1,81.8 							"/>
						</g>
					</g>
				</g>
			</g>
		</g>
		<g>
			<g>
				<g>
					<g>
						<g>
							<defs>
								<rect id="SVGID_7_" x="9.3" y="2" width="82" height="84.8"/>
							</defs>
							<clipPath id="SVGID_8_">
								<use xlink:href="#SVGID_7_"  style="overflow:visible;"/>
							</clipPath>
							<ellipse class="st5" cx="50.6" cy="68.7" rx="3.6" ry="3.5"/>
						</g>
					</g>
				</g>
			</g>
		</g>
	</g>
	<path class="st3" d="M34,38.6"/>
</g>
</svg>
