<?xml version="1.0" encoding="utf-8"?>
<!-- Generator: Adobe Illustrator 25.1.0, SVG Export Plug-In . SVG Version: 6.00 Build 0)  -->
<svg version="1.1" id="Layer_1" xmlns="http://www.w3.org/2000/svg" xmlns:xlink="http://www.w3.org/1999/xlink" x="0px" y="0px"
	 viewBox="0 0 100 100" style="enable-background:new 0 0 100 100;" xml:space="preserve">
<style type="text/css">
	.st0{fill:#FFC800;}
	.st1{clip-path:url(#SVGID_2_);fill:none;stroke:#1D1D1B;stroke-width:2;stroke-miterlimit:10;}
</style>
<circle class="st0" cx="50" cy="50" r="50"/>
<g>
	<defs>
		<rect id="SVGID_1_" x="22" y="10.1" width="58.8" height="78.6"/>
	</defs>
	<clipPath id="SVGID_2_">
		<use xlink:href="#SVGID_1_"  style="overflow:visible;"/>
	</clipPath>
	<path class="st1" d="M78.4,73.6l-0.2-0.8c-0.6-2.7-12.9-8.7-13.9-9l-0.8-0.1c-1.6,0-3.6,1.2-7.5,3.5c-0.8,0.5-1.7,0.5-2.5-0.1
		c-4-3.3-8.5-9.2-10.7-12.7c-2.4-3.8-4.9-9.7-5.8-14.3c-0.2-0.9,0.3-1.7,1-2.2c4.4-2.8,6.4-4.2,6.9-5.9c0.3-1,0.4-14.8-1.7-16.5
		l-0.6-0.6c-1.3-1.2-3.3-3.1-5.9-3c-0.6,0-1.3,0.2-1.8,0.4c-1.8,0.8-6.5,2.9-9,6.3c-1.5,2.1-5.8,23.2,6.8,43.9
		C45,82.9,64.2,87,67.1,86.9l0.1,0l0.2,0c4.2-0.7,8.1-3.9,9.7-5.2C79.9,79.3,78.9,75.6,78.4,73.6z"/>
</g>
</svg>
